<?xml version="1.0" encoding="UTF-8"?>
<svg width="65px" height="65px" viewBox="0 0 65 65" version="1.1" xmlns="http://www.w3.org/2000/svg" xmlns:xlink="http://www.w3.org/1999/xlink">
    <!-- Generator: Sketch 60 (88103) - https://sketch.com -->
    <title>Group 5@1.5x</title>
    <desc>Created with Sketch.</desc>
    <g id="Welcome" stroke="none" stroke-width="1" fill="none" fill-rule="evenodd">
        <g id="Desktop" transform="translate(-888.000000, -200.000000)">
            <g id="Group-6" transform="translate(888.000000, 200.000000)">
                <g id="Group-5">
                    <path d="M32.5,0 C50.4492544,0 65,14.5507456 65,32.5 C65,50.4492544 50.4492544,65 32.5,65 C14.5507456,65 0,50.4492544 0,32.5 C0,14.5507456 14.5507456,0 32.5,0 Z M44.73,16.5 L21.27,16.5 C18.6356017,16.5 16.5,18.6356017 16.5,21.27 L16.5,21.27 L16.5,44.73 C16.5,47.3643983 18.6356017,49.5 21.27,49.5 L21.27,49.5 L44.73,49.5 C47.3643983,49.5 49.5,47.3643983 49.5,44.73 L49.5,44.73 L49.5,21.27 C49.5,18.6356017 47.3643983,16.5 44.73,16.5 L44.73,16.5 Z M24,42 L24,46.5 L21.27,46.5 C20.292456,46.5 19.5,45.707544 19.5,44.73 L19.5,44.73 L19.5,42 L24,42 Z M39,34.5 L39,46.5 L27,46.5 L27,34.5 L39,34.5 Z M46.5,42 L46.5,44.73 C46.5,45.707544 45.707544,46.5 44.73,46.5 L44.73,46.5 L42,46.5 L42,42 L46.5,42 Z M46.5,34.5 L46.5,39 L42,39 L42,34.5 L46.5,34.5 Z M24,34.5 L24,39 L19.5,39 L19.5,34.5 L24,34.5 Z M24,27 L24,31.5 L19.5,31.5 L19.5,27 L24,27 Z M39,19.5 L39,31.5 L27,31.5 L27,19.5 L39,19.5 Z M46.5,27 L46.5,31.5 L42,31.5 L42,27 L46.5,27 Z M44.73,19.5 C45.707544,19.5 46.5,20.292456 46.5,21.27 L46.5,21.27 L46.5,24 L42,24 L42,19.5 Z M24,19.5 L24,24 L19.5,24 L19.5,21.27 C19.5,20.292456 20.292456,19.5 21.27,19.5 L21.27,19.5 L24,19.5 Z" id="Combined-Shape" fill="#0020FF"></path>
                    <g id="film" transform="translate(16.000000, 16.000000)"></g>
                </g>
            </g>
        </g>
    </g>
</svg>