<?xml version="1.0" encoding="UTF-8"?>
<svg width="65px" height="65px" viewBox="0 0 65 65" version="1.1" xmlns="http://www.w3.org/2000/svg" xmlns:xlink="http://www.w3.org/1999/xlink">
    <!-- Generator: Sketch 60 (88103) - https://sketch.com -->
    <title>share on fb@1.5x</title>
    <desc>Created with Sketch.</desc>
    <g id="Welcome" stroke="none" stroke-width="1" fill="none" fill-rule="evenodd">
        <g id="Desktop" transform="translate(-888.000000, -356.000000)" fill="#0020FF">
            <g id="Group-6" transform="translate(888.000000, 200.000000)">
                <path d="M32.5,156 C50.4492544,156 65,170.550746 65,188.5 C65,204.57471 53.3297892,217.923696 37.99973,220.536595 L38,198 L45,198 L46,189 L37,189 L37.0023781,188.521998 C37.0467697,184.105034 37.7126437,180.931034 39,179 C39.8448022,177.732797 42.5114688,177.06613 47,177 L47,177 L47,169 L46.5301603,168.910766 C39.5232358,167.62374 34.3465157,168.653484 31,172 C27.5791172,175.420883 26.2457839,181.087549 27,189 L27,189 L19,189 L19,198 L27,198 L26.9992709,220.536425 C11.6697037,217.923116 0,204.57436 0,188.5 C0,170.550746 14.5507456,156 32.5,156 Z" id="share-on-fb"></path>
            </g>
        </g>
    </g>
</svg>