<?xml version="1.0" encoding="UTF-8"?>
<svg width="65px" height="65px" viewBox="0 0 65 65" version="1.1" xmlns="http://www.w3.org/2000/svg" xmlns:xlink="http://www.w3.org/1999/xlink">
    <!-- Generator: Sketch 60 (88103) - https://sketch.com -->
    <title>Combined Shape@1.5x</title>
    <desc>Created with Sketch.</desc>
    <g id="Welcome" stroke="none" stroke-width="1" fill="none" fill-rule="evenodd">
        <g id="Desktop" transform="translate(-888.000000, -278.000000)" fill="#0020FF">
            <g id="Group-6" transform="translate(888.000000, 200.000000)">
                <path d="M32.5,78 C50.4492544,78 65,92.5507456 65,110.5 C65,128.449254 50.4492544,143 32.5,143 C14.5507456,143 0,128.449254 0,110.5 C0,92.5507456 14.5507456,78 32.5,78 Z M32.515539,108.812006 L32.3681375,108.818277 C31.4936611,108.893012 30.8072057,109.626511 30.8072057,110.52034 L30.8072057,110.52034 L30.807,121.770667 L26.8901798,117.854032 L26.768314,117.743226 C26.0972147,117.189195 25.1021334,117.226131 24.4742316,117.854032 C23.8070859,118.521178 23.8070859,119.602835 24.4742316,120.269981 L24.4742316,120.269981 L31.3075649,127.103314 L31.3286639,127.124053 L31.3286639,127.124053 L31.3774513,127.169421 L31.3774513,127.169421 L31.318,127.113 L31.384,127.175 L31.4501464,127.23084 C31.4587927,127.237746 31.4675075,127.244571 31.4762888,127.25133 L31.5028304,127.271432 C31.5799095,127.328304 31.6606853,127.377876 31.7438572,127.419861 C31.7712654,127.433762 31.799099,127.446945 31.827417,127.459456 L31.827417,127.459456 L31.8850241,127.48355 C31.9105828,127.493705 31.9364446,127.503261 31.9624477,127.512066 C31.9829649,127.519068 32.0035887,127.525669 32.0239638,127.531889 C32.0555553,127.541365 32.0875316,127.549951 32.1203271,127.557575 C32.1322961,127.560409 32.1442898,127.563112 32.1557236,127.565713 C32.1897346,127.573004 32.2241212,127.579283 32.2594787,127.584487 C32.2824238,127.587946 32.3054259,127.590938 32.3277886,127.593474 C32.3516963,127.596087 32.3757523,127.598208 32.4003807,127.599811 C32.4247178,127.601446 32.4490832,127.602561 32.4730989,127.603156 L32.4730989,127.603156 L32.515539,127.603673 L32.515539,127.603673 L32.6316975,127.599744 L32.584,127.602 L32.515539,127.603673 L32.515539,127.603673 L32.5576191,127.603158 L32.5576191,127.603158 L32.584,127.602 L32.6100019,127.6011 L32.6100019,127.6011 L32.7026086,127.593462 C32.7256522,127.590938 32.7486542,127.587946 32.7722277,127.584516 C32.8069569,127.579283 32.8413435,127.573004 32.8747723,127.565684 C32.8867883,127.563112 32.8987819,127.560409 32.9112145,127.557618 C32.9435464,127.549951 32.9755227,127.541365 33.0067711,127.531868 C33.0274894,127.525669 33.0481132,127.519068 33.0684858,127.512201 C33.0946335,127.503261 33.1204953,127.493705 33.1459425,127.483572 L33.1459425,127.483572 L33.203745,127.459387 C33.2319791,127.446945 33.2598126,127.433762 33.2868694,127.420145 C33.3703927,127.377876 33.4511686,127.328304 33.5282409,127.271283 C33.5460723,127.258137 33.5636391,127.244653 33.5810633,127.230847 C33.5990663,127.216447 33.6168455,127.20163 33.6345256,127.186216 L33.6345256,127.186216 L33.7021439,127.124319 C33.7093129,127.117392 33.7164363,127.110391 33.7235131,127.103314 L33.7235131,127.103314 L40.5568464,120.269981 L40.6676526,120.148115 C41.2216836,119.477015 41.1847482,118.481934 40.5568464,117.854032 L40.5568464,117.854032 L40.4349807,117.743226 C39.7638813,117.189195 38.7688001,117.226131 38.1408983,117.854032 L38.1408983,117.854032 L34.223,121.770667 L34.2238723,110.52034 L34.2176017,110.372938 C34.1428673,109.498462 33.4093683,108.812006 32.515539,108.812006 L32.515539,108.812006 Z M29.1344464,93.5180796 C22.8070895,92.7893104 16.6854747,96.0372414 13.7413749,101.685146 C10.797275,107.33305 11.640302,114.211461 15.8612036,118.981213 C16.4864581,119.687771 17.5661051,119.75368 18.2726625,119.128425 C18.97922,118.503171 19.045129,117.423524 18.4198745,116.716966 C15.136951,113.007159 14.4812634,107.657284 16.7711188,103.264469 C19.0609742,98.8716548 23.8222302,96.3454862 28.7435077,96.9123067 C33.6647853,97.4791272 37.7270738,101.02157 38.958312,105.819935 C39.1521644,106.575414 39.8330853,107.103673 40.613039,107.103673 L40.613039,107.103673 L42.765539,107.103673 L43.0277436,107.108456 C45.9013998,107.215667 48.4125823,109.115062 49.2864162,111.8731 C50.1867299,114.714715 49.1411944,117.812047 46.7028753,119.526673 C45.9311031,120.069383 45.7454116,121.134981 46.2881218,121.906754 C46.830832,122.678526 47.8964305,122.864217 48.6682027,122.321507 C52.3256813,119.749568 53.8939847,115.103571 52.5435141,110.841148 C51.1930435,106.578726 47.2354449,103.68351 42.7642027,103.687007 L42.7642027,103.687007 L41.8782441,103.687007 L41.7608317,103.364632 C39.74702,98.0215679 34.8990884,94.1820367 29.1344464,93.5180796 Z" id="Combined-Shape"></path>
            </g>
        </g>
    </g>
</svg>