<?xml version="1.0" encoding="UTF-8"?>
<svg width="47px" height="53px" viewBox="0 0 47 53" version="1.1" xmlns="http://www.w3.org/2000/svg" xmlns:xlink="http://www.w3.org/1999/xlink">
    <!-- Generator: Sketch 60 (88103) - https://sketch.com -->
    <title>upload@1.5x</title>
    <desc>Created with Sketch.</desc>
    <defs>
        <path d="M51.3182674,25.8425852 C52.7353822,25.8425852 53.8841808,26.8944143 53.8841808,28.1919112 L53.8841808,28.1919112 L53.8841808,46.9865186 C53.8841808,50.8790093 50.4377852,54.0344964 46.1864407,54.0344964 L46.1864407,54.0344964 L15.3954802,54.0344964 C11.1441358,54.0344964 7.69774011,50.8790093 7.69774011,46.9865186 L7.69774011,46.9865186 L7.69774011,28.1919112 C7.69774011,26.8944143 8.84653866,25.8425852 10.2636535,25.8425852 C11.6807683,25.8425852 12.8295669,26.8944143 12.8295669,28.1919112 L12.8295669,28.1919112 L12.8295669,46.9865186 C12.8295669,48.2840155 13.9783654,49.3358446 15.3954802,49.3358446 L15.3954802,49.3358446 L46.1864407,49.3358446 C47.6035555,49.3358446 48.752354,48.2840155 48.752354,46.9865186 L48.752354,46.9865186 L48.752354,28.1919112 C48.752354,26.8944143 49.9011526,25.8425852 51.3182674,25.8425852 Z M32.0401123,2.64603152 L32.0967608,2.67563752 C32.1991198,2.73111427 32.2981732,2.79366479 32.3930779,2.86328908 C32.4082532,2.87456507 32.4231134,2.88570823 32.4378332,2.8969998 C32.4951862,2.94092244 32.5511703,2.98783466 32.6053352,3.03742757 L32.4989665,2.94540744 C32.5330744,2.97328209 32.5663639,3.00197869 32.5987977,3.03146325 L32.6053352,3.03742757 L42.8689887,12.4347313 C43.8710402,13.3522001 43.8710402,14.839711 42.8689887,15.7571799 C41.8669372,16.6746487 40.2422907,16.6746487 39.2402392,15.7571799 L39.2402392,15.7571799 L33.3567401,10.3693259 L33.3568738,35.239889 C33.3568738,36.485486 32.2981411,37.5046755 30.95967,37.5842177 L30.7909605,37.5892149 C29.3738456,37.5892149 28.2250471,36.5373859 28.2250471,35.239889 L28.2250471,35.239889 L28.2247401,10.3693259 L22.3416817,15.7571799 C21.385178,16.6329456 19.8613925,16.6727531 18.8533177,15.8766025 L18.7129322,15.7571799 C17.7108807,14.839711 17.7108807,13.3522001 18.7129322,12.4347313 L18.7129322,12.4347313 L28.9765857,3.03742757 C28.9814312,3.03299106 28.9862913,3.02857601 28.9911658,3.02418242 C29.0217339,2.99661979 29.0536799,2.96924167 29.0863744,2.94261741 C29.1030598,2.92895569 29.1197743,2.91568051 29.1366291,2.90263598 C29.1610711,2.88385401 29.1856585,2.86555137 29.2106168,2.84766271 C29.3032475,2.781017 29.399885,2.72110593 29.4996035,2.66786807 C29.5172375,2.65866747 29.5353638,2.64924849 29.5536258,2.6400273 C29.5804977,2.62628178 29.607146,2.61340853 29.6339828,2.60099453 C29.6579236,2.59003972 29.682705,2.57900645 29.7077054,2.56833125 C29.733078,2.55743875 29.7580506,2.54724877 29.7831593,2.53744219 C29.8172079,2.52412802 29.8521938,2.51125417 29.8875509,2.49907449 C29.9012667,2.49442768 29.9145958,2.48996492 29.9279564,2.48560668 C29.9641211,2.47368151 30.0011085,2.46244776 30.0384584,2.45197336 C30.0624021,2.44543743 30.0860957,2.43914992 30.1098647,2.43318107 C30.143665,2.42448679 30.1779321,2.41656296 30.2124657,2.4092773 C30.2326854,2.40522555 30.2527435,2.40122777 30.2728415,2.39745216 C30.3081341,2.39061544 30.3438296,2.38463081 30.3797748,2.37932981 C30.401029,2.37637302 30.4218233,2.37354134 30.4426458,2.37094376 C30.5562936,2.35665196 30.6726926,2.34932593 30.7909605,2.34932593 C30.9091983,2.34932593 31.0255682,2.35664824 31.1395588,2.3708246 C31.1589591,2.37339895 31.178668,2.37607066 31.1983472,2.37895264 C31.2357991,2.38424723 31.2726494,2.39040184 31.309216,2.39726868 C31.3292376,2.40123977 31.3492655,2.40523188 31.369249,2.40944547 C31.4039888,2.41656296 31.4382559,2.42448679 31.472241,2.4330345 C31.4958252,2.43914992 31.5195188,2.44543743 31.5431288,2.45204358 C31.5808124,2.46244776 31.6177998,2.47368151 31.6544032,2.48565494 C31.6670306,2.48986882 31.6800664,2.49423094 31.6930707,2.49869303 C31.731816,2.51195719 31.769819,2.526003 31.8073579,2.54084597 C31.8269334,2.54854117 31.8463033,2.55644783 31.8655856,2.5645852 C31.8998308,2.57914009 31.9339533,2.59442154 31.9676406,2.61036626 C31.980108,2.61610052 31.9923253,2.62199135 32.0045009,2.62797866 L32.0401123,2.64603152 L32.0401123,2.64603152 Z" id="path-1"></path>
    </defs>
    <g id="Welcome" stroke="none" stroke-width="1" fill="none" fill-rule="evenodd">
        <g id="Desktop" transform="translate(-453.000000, -258.000000)">
            <g id="Group" transform="translate(110.000000, 104.000000)">
                <g id="Group-2" transform="translate(320.000000, 152.000000)">
                    <g id="share" transform="translate(16.016949, 0.000000)">
                        <mask id="mask-2" fill="white">
                            <use xlink:href="#path-1"></use>
                        </mask>
                        <use id="Combined-Shape" fill="#000000" fill-rule="nonzero" xlink:href="#path-1"></use>
                        <g id="COLOR/-white" mask="url(#mask-2)" fill="#FFFFFF" fill-rule="evenodd">
                            <rect id="Rectangle" x="0" y="0" width="61.5819209" height="56.3838224"></rect>
                        </g>
                    </g>
                </g>
            </g>
        </g>
    </g>
</svg>